<?xml version="1.0" encoding="UTF-8" standalone="no"?>
<svg width="125px" height="88px" viewBox="0 0 125 88" version="1.1" xmlns="http://www.w3.org/2000/svg" xmlns:xlink="http://www.w3.org/1999/xlink">
    <!-- Generator: Sketch 3.8.3 (29802) - http://www.bohemiancoding.com/sketch -->
    <title>email-icon</title>
    <desc>Created with Sketch.</desc>
    <defs></defs>
    <g id="Page-1" stroke="none" stroke-width="1" fill="none" fill-rule="evenodd">
        <g id="email-icon" transform="translate(-8.000000, -25.000000)">
            <path d="M132.2,105.3 L96.1,69 L132.3,32.9 L132.3,105.3 L132.2,105.3 L132.2,105.3 Z M14.9,112.1 L51.3,75.7 L59.3,83.6 C62.3,86.6 65.9,88.6 70.3,88.6 C74.7,88.6 78.3,86.6 81.3,83.6 L89.3,75.7 L125.7,112.1 L14.9,112.1 L14.9,112.1 L14.9,112.1 Z M125.9,25.3 L74,77.4 C73,78.4 72.1,79 70.3,79 C68.5,79 67.6,78.4 66.6,77.4 L14.7,25.3 L125.9,25.3 L125.9,25.3 L125.9,25.3 Z M8.4,32.9 L44.6,69 L8.4,105.3 L8.4,32.9 L8.4,32.9 L8.4,32.9 Z" id="Shape" fill="#FFFFFF"></path>
            <rect id="_x3C_Slice_x3E__100_" x="0" y="0" width="143" height="128"></rect>
        </g>
    </g>
</svg>