<?xml version="1.0" encoding="UTF-8" standalone="no"?>
<svg width="73px" height="151px" viewBox="0 0 73 151" version="1.1" xmlns="http://www.w3.org/2000/svg" xmlns:xlink="http://www.w3.org/1999/xlink">
    <!-- Generator: Sketch 3.8.3 (29802) - http://www.bohemiancoding.com/sketch -->
    <title>facebook-icon</title>
    <desc>Created with Sketch.</desc>
    <defs></defs>
    <g id="Page-1" stroke="none" stroke-width="1" fill="none" fill-rule="evenodd">
        <g id="facebook-icon" transform="translate(-66.000000, -27.000000)">
            <g id="Page-1">
                <g id="1468976396_5293_-_Facebook">
                    <g id="Layer_x0020_1" transform="translate(66.464844, 27.126465)" fill="#000000">
                        <path d="M1.65481445,49.2147144 L19.6990186,49.2147144 L19.6990186,26.2589185 C19.6990186,26.1888107 19.7035111,26.1197667 19.7122599,26.0520236 C20.0840796,18.9971408 21.5100038,12.6212204 24.7966703,7.94075408 C28.2057062,3.08581755 33.5061173,0.0999144775 41.5189847,0.0999144775 L70.4154764,0.0999144775 C71.2999223,0.0999144775 72.017079,0.817071143 72.017079,1.70151702 L72.017079,24.8397909 C72.017079,25.7242368 71.2999223,26.4413935 70.4154764,26.4413935 L59.0085477,26.4413935 C56.0662672,26.4413935 53.8586334,26.8920702 52.4265663,28.0746769 L51.4068714,26.8422946 L52.4265663,28.0772795 C52.3955911,28.1028162 52.3639066,28.126816 52.3317493,28.1497518 C51.0043142,29.3012652 50.2560642,31.2366234 50.0933855,34.2295032 L50.0956318,34.2295032 L50.0956318,49.2146229 L70.415456,49.2146229 C71.2999019,49.2146229 72.0170585,49.9317795 72.0170585,50.8162254 L72.0170585,75.3734837 C72.0170585,76.2579296 71.2999019,76.9750862 70.415456,76.9750862 L50.0956318,76.9750862 L50.0956318,149.045499 C50.0956318,149.929945 49.3784751,150.647101 48.4940292,150.647101 L21.3005991,150.647101 C20.4161532,150.647101 19.6989965,149.929945 19.6989965,149.045499 L19.6989965,76.9750862 L1.65479243,76.9750862 C0.770346558,76.9750862 0.0531898926,76.2579296 0.0531898926,75.3734837 L0.0531898926,50.8162254 C0.0531898926,49.9317795 0.770346558,49.2146229 1.65479243,49.2146229 L1.65481445,49.2147144 L1.65481445,49.2147144 Z" id="Shape"></path>
                    </g>
                    <rect id="Rectangle-path" x="0" y="0" width="205" height="205"></rect>
                </g>
            </g>
        </g>
    </g>
</svg>