<?xml version="1.0" encoding="UTF-8" standalone="no"?>
<svg width="141px" height="151px" viewBox="0 0 141 151" version="1.1" xmlns="http://www.w3.org/2000/svg" xmlns:xlink="http://www.w3.org/1999/xlink">
    <!-- Generator: Sketch 3.8.3 (29802) - http://www.bohemiancoding.com/sketch -->
    <title>linkedin-icon</title>
    <desc>Created with Sketch.</desc>
    <defs></defs>
    <g id="Page-1" stroke="none" stroke-width="1" fill="none" fill-rule="evenodd">
        <g id="linkedin-icon" transform="translate(-32.000000, -27.000000)">
            <g id="Layer_x0020_1" transform="translate(32.131348, 27.126465)" fill="#FFFFFF">
                <path d="M139.084692,150.646973 L109.588015,150.646973 L107.986413,150.646973 L107.986413,149.04537 L107.986413,85.125209 C107.986413,81.6890967 107.524741,78.8107786 106.085348,76.8868916 C104.704,75.0406804 102.278604,73.9626987 98.2635369,73.9626987 C85.2673577,73.9626987 82.0174871,83.8139697 81.5985784,85.3099692 L81.5985784,149.04535 L81.5985784,150.646833 L79.9969758,150.646951 L50.5053035,150.646951 L48.9037009,150.646951 L48.9037009,149.045348 L48.9037009,45.5814078 L48.9037009,43.9798052 L50.5053035,43.9798052 L79.9969758,43.9798052 L81.5985784,43.9798052 L81.5985784,45.5814078 L81.5985784,52.4244239 C83.7861125,51.0034676 86.6932788,49.3555198 90.2374465,47.8999297 C95.4209336,45.771273 101.959683,44.0529866 109.588025,44.0529866 C115.672391,44.0529866 125.684429,46.2239647 132.729903,55.8579036 C137.359499,62.1884197 140.686375,71.7327913 140.686375,85.9888997 L140.686375,149.045118 L140.686375,150.646721 L139.084772,150.646721 L139.084692,150.646973 Z" id="Shape"></path>
                <path d="M16.448147,31.0827246 C12.1830359,31.0827246 8.31552271,29.3455198 5.51478027,26.5298528 C2.72181543,23.7222336 0.993359131,19.8457317 0.993359131,15.5547454 C0.993359131,11.2888135 2.7246582,7.42543433 5.52140674,4.62868579 C8.31909619,1.83099634 12.1836565,0.0999375 16.448167,0.0999375 L16.4606989,0.106203463 C20.7272314,0.147109572 24.5863464,1.89330698 27.3754475,4.68236801 C30.1723161,7.47934677 31.9027844,11.3247584 31.9027844,15.5547752 C31.9027844,19.8463622 30.1751489,23.7233446 27.382194,26.5311839 C24.5821423,29.3460201 20.7152097,31.0827545 16.4482268,31.0827545 L16.448147,31.0827246 Z" id="Shape"></path>
                <polygon id="Shape" points="31.2436816 150.646973 1.6526123 150.646973 0.050949707 150.646973 0.050949707 149.04541 0.050949707 45.5815698 0.050949707 43.9800073 1.6526123 43.9800073 31.2436816 43.9800073 32.8452441 43.9800073 32.8452441 45.5815698 32.8452441 149.04541 32.8452441 150.646973"></polygon>
            </g>
            <rect id="Rectangle-path" x="0" y="0" width="205" height="205"></rect>
        </g>
    </g>
</svg>