<?xml version="1.0" encoding="UTF-8" standalone="no"?>
<svg width="151px" height="123px" viewBox="0 0 151 123" version="1.1" xmlns="http://www.w3.org/2000/svg" xmlns:xlink="http://www.w3.org/1999/xlink">
    <!-- Generator: Sketch 3.8.3 (29802) - http://www.bohemiancoding.com/sketch -->
    <title>twitter-icon</title>
    <desc>Created with Sketch.</desc>
    <defs></defs>
    <g id="Page-1" stroke="none" stroke-width="1" fill="none" fill-rule="evenodd">
        <g id="twitter-icon" transform="translate(-27.000000, -41.000000)">
            <g id="Layer_x0020_1" transform="translate(27.226562, 41.040039)" fill="#FFFFFF">
                <path d="M140.00459,17.2810596 C142.817774,16.5069183 145.542513,15.5326238 148.154951,14.3816909 C148.664267,14.0932205 149.313802,14.0953486 149.83399,14.4421043 C150.569826,14.9326228 150.768681,15.9271331 150.278163,16.662971 C148.207673,19.768761 145.853216,22.687989 143.248224,25.3862515 C140.849784,27.8706453 138.240659,30.1598486 135.447224,32.2264348 L135.515913,35.1691858 C135.522297,35.2267617 135.525489,35.2854012 135.525489,35.3447511 C135.525489,57.3033741 126.493758,81.0803712 109.269574,98.3020729 C94.5893513,112.979893 73.9761409,122.904275 47.9528523,122.904275 C39.4205081,122.904275 31.1711799,121.676978 23.3603596,119.390257 C15.3100156,117.033427 7.74462477,113.554403 0.832381119,109.137654 C0.280385587,108.834997 -0.0637691738,108.220577 0.0100037998,107.556151 C0.107539957,106.677144 0.899415519,106.043455 1.77841908,106.140991 L1.77806441,106.143828 C2.95227998,106.274113 4.11432368,106.372476 5.26831953,106.437264 C6.39146528,106.500279 7.56485005,106.532554 8.79629146,106.532554 C15.5723923,106.532554 22.0835546,105.402552 28.1473706,103.318949 C33.0835263,101.622764 37.7211709,99.2990371 41.9626489,96.4424702 C36.7611943,95.6217475 31.978258,93.5496079 27.9344628,90.5421838 C22.7006167,86.6500766 18.7016252,81.1917114 16.6304345,74.854779 C16.5133913,74.5755296 16.47414,74.2598676 16.5344353,73.9400666 C16.6984142,73.0708716 17.5360424,72.4992509 18.4052404,72.6632309 L18.4045311,72.6672506 C19.3122677,72.8384416 20.2055782,72.9642333 21.0887298,73.0456908 C21.9476398,73.124902 22.8562042,73.1640342 23.8182027,73.1640342 C24.1356384,73.1640342 24.4507098,73.159187 24.7631806,73.1499654 C20.2175259,71.10466 16.2346201,68.023464 13.1184199,64.2073709 C8.63317406,58.7146021 5.93857518,51.7030716 5.93857518,44.0694242 L5.93857518,43.7085991 C5.93703825,43.4441281 6.00099838,43.1756382 6.13778553,42.9274821 C6.56481715,42.1529855 7.53899256,41.8713717 8.31348817,42.2984033 L8.31218769,42.3007679 C10.3047617,43.3993196 12.4240793,44.28117 14.6414025,44.8936975 C15.0392317,45.0036478 15.4404901,45.1048485 15.8448266,45.197538 C13.4863456,42.9131793 11.4780463,40.2610219 9.91190839,37.3344667 C7.51760248,32.8601014 6.15717524,27.7534594 6.15717524,22.3491469 C6.15717524,19.4812289 6.53786164,16.690276 7.25407538,14.0323229 C7.97489762,11.3574633 9.04128901,8.81479261 10.4063308,6.46162684 C10.5050492,6.25047584 10.6517672,6.05764971 10.8444752,5.90040931 C11.5298299,5.34131985 12.5387682,5.44370374 13.0978536,6.12905738 L11.8568429,7.14142505 L13.0954913,6.13426246 C20.5412255,15.2623479 29.8430304,22.7945164 40.4299591,28.1584495 C50.1010543,33.0581897 60.8420734,36.1481443 72.2173712,36.9928584 C72.1383965,36.5031677 72.0704168,36.012531 72.0141409,35.5210625 C71.8746348,34.3031043 71.80098,33.073905 71.80098,31.8340754 C71.80098,23.0523879 75.3647768,15.0976472 81.1237854,9.33872876 C86.8827939,3.57972022 94.8374646,0.015923345 103.619132,0.015923345 C108.088182,0.015923345 112.365235,0.951206817 116.250956,2.63213575 C120.002966,4.25525928 123.375587,6.57093848 126.190303,9.40788624 C129.22114,8.77218704 132.163891,7.90310816 135.003081,6.8214629 C138.142323,5.6254961 141.146564,4.1721482 143.996745,2.48943653 C144.391146,2.22342901 144.899516,2.13511385 145.387081,2.29306395 C146.228493,2.56569192 146.689452,3.46905125 146.416826,4.31046214 L146.412097,4.30892521 C145.209624,8.01754337 143.363533,11.4251679 141.002559,14.394665 C140.03039,15.6174779 138.969786,16.7672196 137.830094,17.8343207 C138.561557,17.6633659 139.286635,17.4788159 140.004506,17.2812611 L140.00459,17.2810596 Z" id="Shape"></path>
            </g>
            <rect id="Rectangle-path" x="0" y="0" width="205" height="205"></rect>
        </g>
    </g>
</svg>